<svg     class="svg-inline--fa fa-cegep-square fa-w-14"  version="1.0" xmlns="http://www.w3.org/2000/svg" width="512px" height="512px" viewBox="0 0 5120 5120" preserveAspectRatio="xMidYMid meet">
<g id="layer101" fill="currentColor" stroke="none">
 <path d="M0 2560 l0 -2560 2560 3 2560 0 0 2560 0 2560 -2560 0 -2560 0 0 -2560z"/>
 </g>
 <g id="layer102" fill="#fdfdfe" stroke="none">
  <path d="M2040 3255 l0 -1035 -520 0 -520 0 0 -520 0 -520 1565 0 1565 0 0 175 0 175 -1389 0 -1389 0 -7 74 c-5 55 -2 232 4 264 1 1 235 2 521 2 l520 0 0 1210 0 1210 -175 0 -175 0 0 -1035z"/>
  <path d="M2740 3080 l0 -1210 695 0 695 0 0 175 0 175 -520 0 -520 0 0 1035 0 1035 -175 0 -175 0 0 -1210z"/>
 </g>
</svg>