<svg version="1.0" xmlns="http://www.w3.org/2000/svg" width="400px" height="400px" viewBox="0 0 4000 4000"
     preserveAspectRatio="xMidYMid meet">
    <path id="layer101" fill="#082c74" fill-rule="evenodd"
          d="M0 2000 L0 0 2000 0 L4000 0 4000 2000 L4000 4000 2000 4000 L0 4000 0 2000 M2142 3355 C2138 3352,2136 2934,2137 2427 C2138 1920,2140 1494,2140 1482 L2140 1460 2685 1460 L3230 1460 3230 1595 L3230 1730 2822 1729 L2415 1729 2415 2534 C2415 2976,2411 3340,2407 3344 C2397 3351,2152 3361,2142 3355 M1590 2540 L1590 1730 1185 1730 L780 1730 780 1325 L780 920 2005 920 L3230 920 3230 1054 L3230 1189 3197 1194 C3179 1198,2689 1199,2108 1197 L1051 1195 1051 1327 L1051 1460 1460 1460 L1870 1460 1870 2405 L1870 3350 1730 3350 L1590 3350 1590 2540 "/>
</svg>